<svg viewBox="0 0 1024 1024" xmlns="http://www.w3.org/2000/svg">
    <path d="M158.165333 97.834667a42.666667 42.666667 0 0 0-60.330666 60.330666l768 768a42.666667 42.666667 0 0 0 60.330666-60.330666l-768-768zM42.666667 298.666667c0-28.586667 14.08-53.973333 35.712-69.418667L657.92 808.789333A85.845333 85.845333 0 0 1 640 810.666667H128a85.333333 85.333333 0 0 1-85.333333-85.333334V298.666667zM768 617.130667l114.261333 114.261333 64.426667 51.541333a21.333333 21.333333 0 0 0 34.645333-16.64V257.706667a21.333333 21.333333 0 0 0-34.645333-16.64L784 371.2a42.666667 42.666667 0 0 0-16 33.28v212.650667zM364.202667 213.333333L725.333333 574.464V298.666667a85.333333 85.333333 0 0 0-85.333333-85.333334H364.202667z" fill="#ffffff"/>
</svg>