<svg viewBox="0 0 1682 1024" xmlns="http://www.w3.org/2000/svg">
    <path d="M1567.962505 85.690113l-264.288298 171.010075v500.815219l262.252464 169.529469a66.442226 66.442226 0 0 0 41.827139 14.435915 59.59442 59.59442 0 0 0 57.558586-61.445178V133.809831a59.59442 59.59442 0 0 0-57.558586-61.445178 65.331771 65.331771 0 0 0-40.161457 13.140384z m0 0" fill="#191919"/>
    <path d="M0 0m199.881906 0l758.996014 0q199.881906 0 199.881906 199.881906l0 614.081632q0 199.881906-199.881906 199.881906l-758.996014 0q-199.881906 0-199.881906-199.881906l0-614.081632q0-199.881906 199.881906-199.881906Z" fill="#191919"/>
</svg>