<svg viewBox="0 0 1024 1024" xmlns="http://www.w3.org/2000/svg">
    <path
            d="M499.886359 511.590593m-477.874694 0a477.874694 477.874694 0 1 0 955.749389 0 477.874694 477.874694 0 1 0-955.749389 0Z"
            fill="#E84941"/>
    <path
            d="M730.695767 621.311759c91.032926 9.753528 79.641769-56.088805 79.641768-101.581185 0-51.2-120.269426-122.72587-310.451176-121.907056-189.362935 0-309.632361 72.320602-309.632361 123.544685 0 44.697648-12.185889 111.334713 79.641769 100.762371 91.008843-9.753528 85.325306-43.878833 85.325305-90.214111 0-32.511759 74.777046-39.832926 144.665287-39.832926s144.665287 6.502352 144.665287 39.014111c0 46.311195-5.683537 80.460583 86.144121 90.214111z"
            fill="#FFFFFF"/>
</svg>