<svg class="icon" viewBox="0 0 1077 1024" xmlns="http://www.w3.org/2000/svg">
    <path d="M539.163 773.497a210.19 210.19 0 0 1-209.92-209.974 210.136 210.136 0 0 1 209.92-209.92 210.19 210.19 0 0 1 209.974 209.92 210.243 210.243 0 0 1-209.974 209.974z m0-339.052a129.186 129.186 0 0 0-129.078 129.078 129.24 129.24 0 0 0 129.078 129.132 129.24 129.24 0 0 0 129.132-129.132 129.293 129.293 0 0 0-129.132-129.078z"
          fill="#FFFFFF"/>
    <path d="M539.163 1019.042c-449.806 0-525.69-139.372-525.69-451.854 0-178.553 16.546-331.021 220.107-387.233 4.85-1.563 16.653-6.36 26.139-16.923 3.557-3.88 10.294-17.462 15.252-27.433 17.408-34.924 41.23-82.836 90.166-102.885 62.733-25.546 287.367-25.438 348.214 0.108 49.421 20.857 72.973 68.446 90.166 103.208 4.85 9.81 11.48 23.175 14.82 26.894 9.648 10.617 21.397 15.468 27.649 17.408 202.159 55.835 218.758 208.25 218.758 386.856 0.054 312.482-75.83 451.854-525.581 451.854z m1.132-924.78c-61.17 0-122.665 4.473-144.546 13.366-20.696 8.407-36.002 39.29-48.344 64.027-8.623 17.3-16.76 33.684-27.81 45.81a143.252 143.252 0 0 1-63.164 40.044C128.916 292.756 94.316 359.262 94.316 567.19c0 263.652 40.26 371.01 444.847 371.01s444.793-107.358 444.793-371.01c0-195.477-24.306-271.63-160.822-309.303a144.115 144.115 0 0 1-64.458-40.529c-10.994-12.072-19.079-28.24-27.54-45.433-12.827-25.923-27.432-55.404-49.044-64.512-20.911-8.785-81.22-13.15-141.797-13.15z"
          fill="#FFFFFF"/>
    <path d="M804.379 415.42c-22.312 0-40.637-18.108-40.637-40.42s17.84-40.421 40.152-40.421h0.485a40.421 40.421 0 0 1 0 80.842z"
          fill="#FFFFFF"/>
</svg>