<svg viewBox="0 0 1024 1024" xmlns="http://www.w3.org/2000/svg">
    <path d="M549.2224 899.4816c-6.0416 0-12.032-2.9696-18.0736-5.9392l-255.488-198.6048H131.2768c-18.0224 0-30.0544-11.8272-30.0544-29.6448v-281.6c0-17.8176 12.032-29.696 30.0544-29.696h141.312l255.488-219.3408c9.0624-5.888 24.064-8.8576 33.0752-2.9696 12.032 5.9392 18.0736 14.848 18.0736 26.7264v711.424c0 11.8784-6.0416 20.736-18.0736 26.6752-2.9696 2.9696-9.0112 2.9696-11.9808 2.9696z m386.7136-266.752a28.0576 28.0576 0 0 1-0.1024 39.7312 28.16 28.16 0 0 1-39.7824 0.1024l-110.6432-110.6432-110.6432 110.592a28.0576 28.0576 0 0 1-39.7824-0.0512 28.16 28.16 0 0 1-0.1024-39.7824l110.6944-110.592L634.88 411.3408a28.0576 28.0576 0 0 1 0.1024-39.7824 28.16 28.16 0 0 1 39.7824-0.1024l110.6432 110.6944 110.6432-110.6944a28.0576 28.0576 0 0 1 39.7824 0.1024 28.16 28.16 0 0 1 0.1024 39.7824l-110.6432 110.6432 110.592 110.6432z" fill="#ffffff"/>
</svg>