<svg t="1720365456508" class="icon" viewBox="0 0 1170 1024" version="1.1" xmlns="http://www.w3.org/2000/svg" p-id="9002" id="mx_n_1720365456509" width="200" height="200"><path d="M631.776705 4.82605a51.185376 51.185376 0 0 0-54.110255 7.312196l-292.48786 245.031705-233.259069-0.950585a51.185376 51.185376 0 0 0-35.829763 14.624393 51.624107 51.624107 0 0 0-15.355613 36.560983L0.002926 716.887746a50.673522 50.673522 0 0 0 51.185375 51.185376h235.452728l291.025421 244.08112a51.843473 51.843473 0 0 0 32.904885 11.845758 48.406741 48.406741 0 0 0 21.20537-4.82605 50.454156 50.454156 0 0 0 29.248786-46.359326V51.185376a50.6004 50.6004 0 0 0-29.248786-46.359326m197.429306 255.926878a51.185376 51.185376 0 0 0-67.272208 24.057126 52.135961 52.135961 0 0 0 23.399028 68.295916 169.057983 169.057983 0 0 1 79.702942 155.018566 178.125107 178.125107 0 0 1-73.853184 162.696372 51.697229 51.697229 0 0 0-22.66781 68.661526 50.746644 50.746644 0 0 0 45.335619 28.371322 49.284205 49.284205 0 0 0 22.667809-5.411025 275.742931 275.742931 0 0 0 130.157098-254.318195 267.91888 267.91888 0 0 0-137.469294-247.371608m158.674664-150.338761a51.185376 51.185376 0 0 0-55.572694 86.064553A371.898315 371.898315 0 0 1 1068.314837 511.853756a378.479292 378.479292 0 0 1-130.157098 315.740646 51.185376 51.185376 0 0 0-13.893174 71.001428 50.23479 50.23479 0 0 0 70.197087 14.112539 539.493859 539.493859 0 0 0-6.580977-802.294202m0 0z" fill="#191919" p-id="9003"></path></svg>