<svg viewBox="0 0 1024 1024" version="1.1" xmlns="http://www.w3.org/2000/svg">
    <path fill="red" d="M727.4496 599.8592h-33.28a16.6912 16.6912 0 0 1-16.6912-16.6912v-66.56a16.6912 16.6912 0 0 1 16.6912-16.6912h33.28a16.6912 16.6912 0 0 1 16.6912 16.6912v66.56a16.6912 16.6912 0 0 1-16.6912 16.6912m0-149.9648h-33.28a16.6912 16.6912 0 0 1-16.6912-16.6912v-66.56a16.6912 16.6912 0 0 1 16.6912-16.6912h33.28a16.6912 16.6912 0 0 1 16.6912 16.6912v66.56a16.6912 16.6912 0 0 1-16.6912 16.6912m-133.12 149.9648h-33.28a16.6912 16.6912 0 0 1-16.6912-16.6912v-66.56a16.6912 16.6912 0 0 1 16.6912-16.6912h33.28a16.6912 16.6912 0 0 1 16.6912 16.6912v66.56a16.7936 16.7936 0 0 1-16.6912 16.6912m0-149.9648h-33.28a16.6912 16.6912 0 0 1-16.6912-16.6912v-66.56a16.6912 16.6912 0 0 1 16.6912-16.6912h33.28a16.6912 16.6912 0 0 1 16.6912 16.6912v66.56a16.7936 16.7936 0 0 1-16.6912 16.6912m116.5824 233.216v16.7936a16.6912 16.6912 0 0 1-16.6912 16.6912H327.68a16.6912 16.6912 0 0 1-16.6912-16.6912v-16.6912a16.6912 16.6912 0 0 1 16.6912-16.6912h366.4896a16.7936 16.7936 0 0 1 16.6912 16.6912m-249.856-83.2512h-33.28a16.6912 16.6912 0 0 1-16.6912-16.6912v-66.56a16.6912 16.6912 0 0 1 16.6912-16.6912h33.28a16.6912 16.6912 0 0 1 16.6912 16.6912v66.56a16.6912 16.6912 0 0 1-16.6912 16.6912m0-149.9648h-33.28a16.6912 16.6912 0 0 1-16.6912-16.6912v-66.56a16.6912 16.6912 0 0 1 16.6912-16.6912h33.28a16.6912 16.6912 0 0 1 16.6912 16.6912v66.56a16.6912 16.6912 0 0 1-16.6912 16.6912m-133.12 149.9648h-33.28a16.6912 16.6912 0 0 1-16.6912-16.6912v-66.56a16.6912 16.6912 0 0 1 16.6912-16.6912h33.28a16.6912 16.6912 0 0 1 16.6912 16.6912v66.56a16.6912 16.6912 0 0 1-16.6912 16.6912m0-149.9648h-33.28a16.6912 16.6912 0 0 1-16.6912-16.6912v-66.56a16.6912 16.6912 0 0 1 16.6912-16.6912h33.28a16.6912 16.6912 0 0 1 16.6912 16.6912v66.56a16.6912 16.6912 0 0 1-16.6912 16.6912"/>
</svg>