<svg viewBox="0 0 1024 1024" version="1.1" xmlns="http://www.w3.org/2000/svg">
    <path d="M512 1.181538C229.612308 1.181538 0.787692 230.006154 0.787692 512.393846 0.787692 795.175385 229.612308 1024 512 1024c282.387692 0 511.212308-228.824615 511.212308-511.212308C1023.212308 230.006154 794.387692 1.181538 512 1.181538m0 73.255385c241.821538 0 438.350769 196.529231 438.350769 438.350769S753.821538 951.138462 512 951.138462c-241.821538 0-438.350769-196.529231-438.350769-438.35077S270.178462 74.436923 512 74.436923m94.916923 715.618462c-14.572308 0-27.963077-9.058462-33.870769-22.449231a37.139692 37.139692 0 0 1 7.876923-39.778462 302.316308 302.316308 0 0 0 89.009231-215.433846c0-81.132308-31.507692-157.932308-89.009231-215.433846a36.391385 36.391385 0 0 1 1.181538-50.806154c13.784615-13.784615 36.233846-14.178462 50.806154-1.181538A376.359385 376.359385 0 0 1 743.581538 512c0.393846 100.036923-39.384615 196.135385-110.670769 267.027692-7.089231 7.483077-16.147692 11.027692-25.993846 11.027693m-127.606154-103.187693c-14.572308 0-27.963077-9.058462-33.870769-22.44923a37.139692 37.139692 0 0 1 7.876923-39.778462 158.089846 158.089846 0 0 0 0-223.704615 36.391385 36.391385 0 0 1 1.181539-50.806154c13.784615-13.784615 36.233846-14.178462 50.806153-1.181539a231.778462 231.778462 0 0 1 0 327.286154c-7.089231 6.695385-16.147692 10.633846-25.993846 10.633846m-79.163077-139.815384c-12.209231 12.603077-30.326154 17.723077-47.261538 13.390769-16.935385-4.332308-30.326154-17.723077-34.658462-34.658462-4.332308-16.935385 0.787692-35.052308 13.39077-47.261538 19.298462-18.510769 49.624615-18.116923 68.135384 0.787692 18.904615 18.116923 18.904615 48.443077 0.393846 67.741539"/>
</svg>