<svg viewBox="0 0 1024 1024" version="1.1" xmlns="http://www.w3.org/2000/svg">
    <path d="M922.05 338.77c-22.42-53-54.5-100.59-95.36-141.45-40.86-40.86-88.45-72.95-141.45-95.36C630.35 78.74 572.07 66.97 512 66.97s-118.35 11.77-173.23 34.98c-53 22.42-100.59 54.5-141.45 95.36s-72.95 88.45-95.36 141.45C78.74 393.65 66.97 451.93 66.97 512s11.77 118.35 34.98 173.23c22.42 53 54.5 100.59 95.36 141.45 40.86 40.86 88.45 72.95 141.45 95.36 54.88 23.21 113.17 34.98 173.23 34.98s118.35-11.77 173.23-34.98c53-22.42 100.59-54.5 141.45-95.36 40.86-40.86 72.95-88.45 95.36-141.45 23.21-54.88 34.98-113.17 34.98-173.23s-11.75-118.35-34.96-173.23zM876 665.75c-19.89 47.04-48.38 89.29-84.67 125.57S712.79 856.1 665.75 876c-48.68 20.59-100.42 31.03-153.75 31.03-53.34 0-105.07-10.44-153.75-31.03-47.04-19.89-89.29-48.38-125.57-84.67-36.29-36.29-64.77-78.54-84.67-125.57-20.59-48.68-31.03-100.42-31.03-153.75 0-53.34 10.44-105.07 31.03-153.75 19.89-47.04 48.38-89.29 84.67-125.57 36.29-36.29 78.54-64.77 125.57-84.67 48.68-20.59 100.42-31.03 153.75-31.03 53.34 0 105.07 10.44 153.75 31.03 47.04 19.89 89.29 48.38 125.57 84.67 36.29 36.29 64.77 78.54 84.67 125.57 20.59 48.68 31.03 100.42 31.03 153.75 0.01 53.33-10.43 105.06-31.02 153.74z"/>
    <path d="M332.96 384.1m-50 0a50 50 0 1 0 100 0 50 50 0 1 0-100 0Z"/>
    <path d="M691.04 384.1m-50 0a50 50 0 1 0 100 0 50 50 0 1 0-100 0Z"/>
    <path d="M307.05 587.85c0 54.55 21.37 105.96 60.18 144.77 38.81 38.81 90.22 60.18 144.77 60.18 54.55 0 105.96-21.37 144.77-60.18 38.81-38.81 60.18-90.22 60.18-144.77v-27.38h-409.9v27.38z m358.26 22.62c-4.8 32.65-19.97 62.87-43.89 86.79-29.37 29.37-68.23 45.54-109.42 45.54s-80.05-16.17-109.42-45.54c-23.92-23.92-39.09-54.14-43.89-86.79h306.62z"/>
</svg>