<svg viewBox="0 0 1024 1024" version="1.1" xmlns="http://www.w3.org/2000/svg">
    <path d="M792.448 128c54.784 0 99.84 42.154667 103.338667 95.658667L896 230.4v246.4c0 54.4-42.837333 98.730667-96.725333 102.186667l-6.826667 0.213333h-86.613333L571.306667 877.226667a32 32 0 0 1-24.533334 18.474666l-4.650666 0.341334c-74.154667 0-134.954667-57.301333-139.093334-129.749334l-0.213333-7.850666v-108.8H232.746667a104.234667 104.234667 0 0 1-67.413334-23.68l-6.058666-5.418667-5.674667-5.888a101.717333 101.717333 0 0 1-25.301333-74.752l0.938666-8.106667 49.365334-316.757333A103.082667 103.082667 0 0 1 274.773333 128.170667L281.685333 128h510.762667zM717.226667 192v323.2h75.264c20.394667 0 37.034667-14.933333 39.253333-33.92l0.298667-4.48V230.4a38.826667 38.826667 0 0 0-34.901334-38.144l-4.650666-0.256H717.226667z m-194.602667 637.482667l130.56-289.194667V192H281.386667a39.594667 39.594667 0 0 0-36.992 23.765333l-1.536 4.394667-1.024 4.608-49.365334 316.757333c-1.706667 11.008 1.621333 22.186667 9.088 30.72a39.893333 39.893333 0 0 0 25.728 13.098667l5.12 0.256h202.410667a32 32 0 0 1 31.701333 27.648l0.298667 4.352v140.8c0 30.293333 18.773333 56.362667 45.610667 67.669333l5.845333 2.176 4.352 1.28z" fill="#000000" fill-opacity=".4"/>
</svg>